<svg version="1.1" xmlns="http://www.w3.org/2000/svg" viewBox="0 0 1673.0504899799935 505.63019226204597" width="3346.100979959987" height="1011.2603845240919">
  <!-- svg-source:excalidraw -->
  
  <defs>
    <style class="style-fonts">
      @font-face {
        font-family: "Virgil";
        src: url("https://excalidraw.com/Virgil.woff2");
      }
      @font-face {
        font-family: "Cascadia";
        src: url("https://excalidraw.com/Cascadia.woff2");
      }
    </style>
    
  </defs>
  <rect x="0" y="0" width="1673.0504899799935" height="505.63019226204597" fill="#ffffff"></rect><g stroke-linecap="round"><g transform="translate(398.92364190181024 366.871311643471) rotate(0 82.26452324322922 -1.3485018835947358)"><path d="M0.87 -0.04 C28.33 -0.37, 137.53 -2.29, 164.66 -2.66 M-0.14 -1.1 C27.19 -1.21, 136.07 -1.39, 163.77 -1.36" stroke="#1e1e1e" stroke-width="1" fill="none"></path></g><g transform="translate(398.92364190181024 366.871311643471) rotate(0 82.26452324322922 -1.3485018835947358)"><path d="M135.52 9.09 C143.1 4.22, 152.01 3.26, 163.55 -1.81 M135.71 9.55 C144.26 6.45, 150.6 3.6, 162.88 -0.66" stroke="#1e1e1e" stroke-width="1" fill="none"></path></g><g transform="translate(398.92364190181024 366.871311643471) rotate(0 82.26452324322922 -1.3485018835947358)"><path d="M135.51 -11.43 C142.98 -10.32, 151.9 -5.3, 163.55 -1.81 M135.7 -10.97 C144.4 -8.3, 150.74 -5.38, 162.88 -0.66" stroke="#1e1e1e" stroke-width="1" fill="none"></path></g></g><mask></mask><g stroke-linecap="round"><g transform="translate(1044.24203994439 364.66273267948304) rotate(0 100.74009924324531 -57.96429664756158)"><path d="M-0.7 -1.18 C33.18 -20.22, 168.44 -96.01, 202.18 -115.01 M1.13 0.81 C35.03 -18.49, 168.33 -97.08, 201.68 -116.74" stroke="#1e1e1e" stroke-width="1" fill="none"></path></g><g transform="translate(1044.24203994439 364.66273267948304) rotate(0 100.74009924324531 -57.96429664756158)"><path d="M180.63 -92.19 C187.89 -97.53, 191.59 -101.79, 202.45 -116.24 M183.05 -93.99 C186.48 -100.4, 191.4 -105.92, 202.58 -117.64" stroke="#1e1e1e" stroke-width="1" fill="none"></path></g><g transform="translate(1044.24203994439 364.66273267948304) rotate(0 100.74009924324531 -57.96429664756158)"><path d="M170.21 -109.87 C179.49 -111.53, 185.33 -112.16, 202.45 -116.24 M172.64 -111.67 C178.74 -113.77, 186.26 -114.89, 202.58 -117.64" stroke="#1e1e1e" stroke-width="1" fill="none"></path></g></g><mask></mask><g stroke-linecap="round"><g transform="translate(1045.994438981384 369.2617040143248) rotate(0 101.50969172808834 26.81250360038314)"><path d="M-0.98 -0.85 C32.72 8.01, 167.98 44.36, 201.89 53.49 M0.71 1.32 C34.79 10.26, 170.53 45.54, 204 54.47" stroke="#1e1e1e" stroke-width="1" fill="none"></path></g><g transform="translate(1045.994438981384 369.2617040143248) rotate(0 101.50969172808834 26.81250360038314)"><path d="M172.71 55.29 C180.57 55.83, 189.53 55.16, 202.94 56.08 M174.88 57.16 C179.6 57.17, 187.08 56.88, 203.35 55.05" stroke="#1e1e1e" stroke-width="1" fill="none"></path></g><g transform="translate(1045.994438981384 369.2617040143248) rotate(0 101.50969172808834 26.81250360038314)"><path d="M177.93 35.44 C184.41 41.39, 191.93 46.17, 202.94 56.08 M180.1 37.31 C183.67 41.55, 190.03 45.53, 203.35 55.05" stroke="#1e1e1e" stroke-width="1" fill="none"></path></g></g><mask></mask><g transform="translate(598.9213747584176 10) rotate(0 304.60406494140625 33.60033569563592)"><text x="304.60406494140625" y="0" font-family="Virgil, Segoe UI Emoji" font-size="53.760537113017506px" fill="#343a40" text-anchor="middle" style="white-space: pre;" direction="ltr" dominant-baseline="text-before-edge">World ID State Bridge</text></g><g stroke-linecap="round"><g transform="translate(596.33318639585 76.63558373741148) rotate(0 306.36600996914314 0)"><path d="M0 0 C102.12 0, 510.61 0, 612.73 0 M0 0 C102.12 0, 510.61 0, 612.73 0" stroke="#343a40" stroke-width="4" fill="none"></path></g></g><mask></mask><g transform="translate(28.614640261673912 132.51593706554536) rotate(0 381.77978515625 35)"><text x="381.77978515625" y="0" font-family="Virgil, Segoe UI Emoji" font-size="28px" fill="#1e1e1e" text-anchor="middle" style="white-space: pre;" direction="ltr" dominant-baseline="text-before-edge">once registerIdentities() inserts a new batch of</text><text x="381.77978515625" y="35" font-family="Virgil, Segoe UI Emoji" font-size="28px" fill="#1e1e1e" text-anchor="middle" style="white-space: pre;" direction="ltr" dominant-baseline="text-before-edge"> identity commitments into the WorldIDIdentityManager</text></g><g stroke-linecap="round" transform="translate(10 324.30782272557667) rotate(0 192 47)"><path d="M23.5 0 M23.5 0 C122.82 0.64, 221.81 2.19, 360.5 0 M23.5 0 C126.81 2.32, 231.38 1.17, 360.5 0 M360.5 0 C375.85 -0.08, 383.46 5.87, 384 23.5 M360.5 0 C375.65 1.46, 385.79 6.87, 384 23.5 M384 23.5 C385.4 40.85, 383.14 61.53, 384 70.5 M384 23.5 C383.68 34.78, 384.78 47.69, 384 70.5 M384 70.5 C383.3 87.71, 376.11 93.41, 360.5 94 M384 70.5 C385.1 84.33, 377.86 95.44, 360.5 94 M360.5 94 C231.11 93.36, 98.33 91.35, 23.5 94 M360.5 94 C234.2 93.11, 106.48 92.76, 23.5 94 M23.5 94 C7.1 95.73, -1.14 87.14, 0 70.5 M23.5 94 C9.43 95.22, -1.12 84.37, 0 70.5 M0 70.5 C-1.16 57.24, -0.61 45.19, 0 23.5 M0 70.5 C-0.09 51.84, 1.33 34.38, 0 23.5 M0 23.5 C-1.71 5.85, 6.92 0.81, 23.5 0 M0 23.5 C-1.84 9.45, 8.91 -1.78, 23.5 0" stroke="#1e1e1e" stroke-width="1" fill="none"></path></g><g transform="translate(35.708099365234375 353.80782272557667) rotate(0 166.29190063476562 17.5)"><text x="166.29190063476562" y="0" font-family="Virgil, Segoe UI Emoji" font-size="28px" fill="#1e1e1e" text-anchor="middle" style="white-space: pre;" direction="ltr" dominant-baseline="text-before-edge">WorldIDIdentityManager</text></g><g transform="translate(31.152995455928476 251.61706961445816) rotate(0 54.06995391845703 25)"><text x="54.06995391845703" y="0" font-family="Virgil, Segoe UI Emoji" font-size="20px" fill="#1e1e1e" text-anchor="middle" style="white-space: pre;" direction="ltr" dominant-baseline="text-before-edge">(0 - phone)</text><text x="54.06995391845703" y="25" font-family="Virgil, Segoe UI Emoji" font-size="20px" fill="#1e1e1e" text-anchor="middle" style="white-space: pre;" direction="ltr" dominant-baseline="text-before-edge">(1 - orb)</text></g><g stroke-linecap="round" transform="translate(569.6728493438678 302.9825200908749) rotate(0 236.4734048053122 60.82398019734842)"><path d="M30.41 0 M30.41 0 C174.29 -1.78, 319.24 -0.89, 442.53 0 M30.41 0 C122.01 -2.46, 213.11 -1.81, 442.53 0 M442.53 0 C461.24 -1.33, 474.28 9.9, 472.95 30.41 M442.53 0 C460.89 1.63, 474.3 9.88, 472.95 30.41 M472.95 30.41 C471.44 45.28, 474.19 58.78, 472.95 91.24 M472.95 30.41 C472.17 53.35, 472.92 78.68, 472.95 91.24 M472.95 91.24 C474.4 110.73, 463.52 120.97, 442.53 121.65 M472.95 91.24 C472.38 110.19, 461.24 121.23, 442.53 121.65 M442.53 121.65 C348.96 121.12, 255.54 119.86, 30.41 121.65 M442.53 121.65 C327.97 122.68, 212.85 122.35, 30.41 121.65 M30.41 121.65 C11.32 123.55, -1.33 113.09, 0 91.24 M30.41 121.65 C8.02 122.54, 1.12 110.94, 0 91.24 M0 91.24 C-1.23 77.16, -0.11 64.01, 0 30.41 M0 91.24 C0.25 77.18, -1.52 63.07, 0 30.41 M0 30.41 C-0.42 9.36, 11 0.11, 30.41 0 M0 30.41 C-2.19 9.37, 10.92 -0.43, 30.41 0" stroke="#1e1e1e" stroke-width="1" fill="none"></path></g><g transform="translate(722.9162965686137 346.30650028822333) rotate(0 83.2299575805664 17.5)"><text x="83.2299575805664" y="0" font-family="Virgil, Segoe UI Emoji" font-size="28px" fill="#1e1e1e" text-anchor="middle" style="white-space: pre;" direction="ltr" dominant-baseline="text-before-edge">StateBridge</text></g><g stroke-linecap="round" transform="translate(1260.492421416703 198.3702655047298) rotate(0 201.27903428164518 41.33328812179991)"><path d="M20.67 0 M20.67 0 C163.69 0.65, 309.65 0.78, 381.89 0 M20.67 0 C138.1 1.26, 256.7 1.07, 381.89 0 M381.89 0 C397.61 1.22, 403.76 7.61, 402.56 20.67 M381.89 0 C396.27 1.09, 401.6 5.73, 402.56 20.67 M402.56 20.67 C404.52 33.25, 402.15 46.9, 402.56 62 M402.56 20.67 C402 35.81, 403.27 52.06, 402.56 62 M402.56 62 C403.58 74.55, 395 83.97, 381.89 82.67 M402.56 62 C401.39 77.01, 397.16 82.51, 381.89 82.67 M381.89 82.67 C304.27 81.32, 228.53 83.53, 20.67 82.67 M381.89 82.67 C271.97 80.78, 162.66 80.91, 20.67 82.67 M20.67 82.67 C5.71 83.35, -0.65 73.79, 0 62 M20.67 82.67 C5.17 81.9, -0.96 75.34, 0 62 M0 62 C0.97 47.81, 1.77 31.32, 0 20.67 M0 62 C-0.19 45.07, -0.01 29.5, 0 20.67 M0 20.67 C0.43 8.74, 5.88 1.84, 20.67 0 M0 20.67 C0 7.22, 6.16 2.18, 20.67 0" stroke="#e03131" stroke-width="1" fill="none"></path></g><g transform="translate(1390.2874850562584 222.2035536265298) rotate(0 71.48397064208984 17.5)"><text x="71.48397064208984" y="0" font-family="Virgil, Segoe UI Emoji" font-size="28px" fill="#e03131" text-anchor="middle" style="white-space: pre;" direction="ltr" dominant-baseline="text-before-edge">OpWorldID</text></g><g stroke-linecap="round" transform="translate(1258.36838357465 383.99706690176663) rotate(0 201.2790342816453 41.33328812179991)"><path d="M20.67 0 M20.67 0 C101.93 -0.17, 183.84 0.06, 381.89 0 M20.67 0 C160.21 -1.44, 298.26 -1.58, 381.89 0 M381.89 0 C395.13 1.07, 402.77 5.76, 402.56 20.67 M381.89 0 C396.14 -1.37, 402.96 7.55, 402.56 20.67 M402.56 20.67 C403.38 37.48, 400.76 52.61, 402.56 62 M402.56 20.67 C402.13 36.34, 403.65 53.21, 402.56 62 M402.56 62 C403.61 76.88, 396.36 83.21, 381.89 82.67 M402.56 62 C401.06 77.56, 394.59 84.22, 381.89 82.67 M381.89 82.67 C265.66 83.64, 150.09 82.15, 20.67 82.67 M381.89 82.67 C292.65 85.26, 203.41 84.98, 20.67 82.67 M20.67 82.67 C7.71 82.24, -1.4 75.65, 0 62 M20.67 82.67 C7.91 82.26, -0.12 77.18, 0 62 M0 62 C0.9 49.75, -0.51 39.19, 0 20.67 M0 62 C0.76 49.45, -0.1 37.32, 0 20.67 M0 20.67 C-1.16 6.47, 7.96 0.09, 20.67 0 M0 20.67 C-1.5 5.8, 7.62 -0.82, 20.67 0" stroke="#1971c2" stroke-width="1" fill="none"></path></g><g transform="translate(1356.6634548435998 407.8303550235664) rotate(0 102.98396301269531 17.5)"><text x="102.98396301269531" y="0" font-family="Virgil, Segoe UI Emoji" font-size="28px" fill="#1971c2" text-anchor="middle" style="white-space: pre;" direction="ltr" dominant-baseline="text-before-edge">PolygonWorldID</text></g><g transform="translate(284.458280084949 285.02992438370984) rotate(0 139.43992614746094 17.5)"><text x="139.43992614746094" y="0" font-family="Virgil, Segoe UI Emoji" font-size="28px" fill="#1e1e1e" text-anchor="middle" style="white-space: pre;" direction="ltr" dominant-baseline="text-before-edge">sendRootMultichain()</text></g><g transform="translate(894.9659708380143 211.23385100539122) rotate(0 160.22991943359375 17.5)"><text x="160.22991943359375" y="0" font-family="Virgil, Segoe UI Emoji" font-size="28px" fill="#e03131" text-anchor="middle" style="white-space: pre;" direction="ltr" dominant-baseline="text-before-edge">_sendRootToOptimism()</text></g><g transform="translate(924.0146509914107 460.63019226204597) rotate(0 152.3619384765625 17.5)"><text x="152.3619384765625" y="0" font-family="Virgil, Segoe UI Emoji" font-size="28px" fill="#1971c2" text-anchor="middle" style="white-space: pre;" direction="ltr" dominant-baseline="text-before-edge">_sendRootToPolygon()</text></g><g transform="translate(1358.3176222641428 336.6795802109116) rotate(0 89.86595916748047 17.5)"><text x="89.86595916748047" y="0" font-family="Virgil, Segoe UI Emoji" font-size="28px" fill="#1971c2" text-anchor="middle" style="white-space: pre;" direction="ltr" dominant-baseline="text-before-edge">receiveRoot()</text></g><g transform="translate(1379.0588653552552 150.41758502594007) rotate(0 89.86595916748047 17.5)"><text x="89.86595916748047" y="0" font-family="Virgil, Segoe UI Emoji" font-size="28px" fill="#e03131" text-anchor="middle" style="white-space: pre;" direction="ltr" dominant-baseline="text-before-edge">receiveRoot()</text></g></svg>