<svg version="1.1" xmlns="http://www.w3.org/2000/svg" viewBox="0 0 1803.6043851266857 673.6648814289861" width="3607.2087702533713" height="1347.3297628579721">
  <!-- svg-source:excalidraw -->
  
  <defs>
    <style class="style-fonts">
      @font-face {
        font-family: "Virgil";
        src: url("https://excalidraw.com/Virgil.woff2");
      }
      @font-face {
        font-family: "Cascadia";
        src: url("https://excalidraw.com/Cascadia.woff2");
      }
    </style>
    
  </defs>
  <rect x="0" y="0" width="1803.6043851266857" height="673.6648814289861" fill="#ffffff"></rect><g stroke-linecap="round"><g transform="translate(1147.3988493270997 218.90447716487165) rotate(0 108.19957009354721 -0.3945739520421512)"><path d="M-0.7 -1.18 C35.67 -1.03, 180.87 -0.06, 217.1 0.13 M1.13 0.81 C37.52 0.7, 180.76 -1.13, 216.6 -1.6" stroke="#1e1e1e" stroke-width="1" fill="none"></path></g><g transform="translate(1147.3988493270997 218.90447716487165) rotate(0 108.19957009354721 -0.3945739520421512)"><path d="M186.57 10.42 C195.59 7.69, 201.13 6, 217.37 -1.1 M189 8.62 C194.71 5.25, 201.87 2.85, 217.5 -2.5" stroke="#1e1e1e" stroke-width="1" fill="none"></path></g><g transform="translate(1147.3988493270997 218.90447716487165) rotate(0 108.19957009354721 -0.3945739520421512)"><path d="M186.31 -10.1 C195.24 -8.62, 200.84 -6.1, 217.37 -1.1 M188.73 -11.9 C194.61 -10.17, 201.84 -7.46, 217.5 -2.5" stroke="#1e1e1e" stroke-width="1" fill="none"></path></g></g><mask></mask><g stroke-linecap="round"><g transform="translate(1128.883212978444 405.72763285961787) rotate(0 109.43693823480521 0.14677034778299003)"><path d="M-0.98 -0.85 C35.37 -1.07, 181.19 -1.04, 217.75 -0.99 M0.71 1.32 C37.43 1.18, 183.75 0.14, 219.85 -0.01" stroke="#1e1e1e" stroke-width="1" fill="none"></path></g><g transform="translate(1128.883212978444 405.72763285961787) rotate(0 109.43693823480521 0.14677034778299003)"><path d="M190.31 8.48 C197.66 6.9, 206.14 4.13, 218.79 1.6 M192.48 10.35 C196.84 8.7, 203.94 6.77, 219.2 0.57" stroke="#1e1e1e" stroke-width="1" fill="none"></path></g><g transform="translate(1128.883212978444 405.72763285961787) rotate(0 109.43693823480521 0.14677034778299003)"><path d="M190.19 -12.04 C197.64 -7.99, 206.15 -5.12, 218.79 1.6 M192.36 -10.17 C196.71 -7.41, 203.84 -4.94, 219.2 0.57" stroke="#1e1e1e" stroke-width="1" fill="none"></path></g></g><mask></mask><g transform="translate(593.1552264648024 10) rotate(0 304.60406494140625 33.60033569563592)"><text x="304.60406494140625" y="0" font-family="Virgil, Segoe UI Emoji" font-size="53.760537113017506px" fill="#343a40" text-anchor="middle" style="white-space: pre;" direction="ltr" dominant-baseline="text-before-edge">World ID State Bridge</text></g><g stroke-linecap="round"><g transform="translate(590.5670381022353 76.63558373741148) rotate(0 306.3660099691433 0)"><path d="M0 0 C102.12 0, 510.61 0, 612.73 0 M0 0 C102.12 0, 510.61 0, 612.73 0" stroke="#343a40" stroke-width="4" fill="none"></path></g></g><mask></mask><g stroke-linecap="round" transform="translate(10 346.03915333435566) rotate(0 222.9999999999999 50)"><path d="M25 0 M25 0 C141.46 0.79, 257.64 2.11, 421 0 M25 0 C146.5 2.23, 269.07 1.25, 421 0 M421 0 C437.35 -0.08, 445.46 6.37, 446 25 M421 0 C437.15 1.46, 447.79 7.37, 446 25 M446 25 C447.38 43.5, 445.12 65.34, 446 75 M446 25 C445.68 37.04, 446.78 50.72, 446 75 M446 75 C445.3 93.21, 437.61 99.41, 421 100 M446 75 C447.1 89.83, 439.36 101.44, 421 100 M421 100 C268.62 99.23, 113.34 97.52, 25 100 M421 100 C272.44 99.11, 122.66 98.81, 25 100 M25 100 C7.6 101.73, -1.14 92.64, 0 75 M25 100 C9.93 101.22, -1.12 89.87, 0 75 M0 75 C-1.13 60.91, -0.59 48.02, 0 25 M0 75 C-0.07 55.19, 1.36 36.58, 0 25 M0 25 C-1.71 6.35, 7.42 0.81, 25 0 M0 25 C-1.84 9.95, 9.41 -1.78, 25 0" stroke="#1e1e1e" stroke-width="1" fill="none"></path></g><g transform="translate(19.19610595703125 373.53915333435566) rotate(0 213.80389404296864 22.5)"><text x="213.80389404296875" y="0" font-family="Virgil, Segoe UI Emoji" font-size="36px" fill="#1e1e1e" text-anchor="middle" style="white-space: pre;" direction="ltr" dominant-baseline="text-before-edge">WorldIDIdentityManager</text></g><g transform="translate(117.34799572130737 287.1990450934668) rotate(0 54.06995391845703 25)"><text x="54.06995391845703" y="0" font-family="Virgil, Segoe UI Emoji" font-size="20px" fill="#1e1e1e" text-anchor="middle" style="white-space: pre;" direction="ltr" dominant-baseline="text-before-edge">(0 - phone)</text><text x="54.06995391845703" y="25" font-family="Virgil, Segoe UI Emoji" font-size="20px" fill="#1e1e1e" text-anchor="middle" style="white-space: pre;" direction="ltr" dominant-baseline="text-before-edge">(1 - orb)</text></g><g stroke-linecap="round" transform="translate(651.1122633877083 340.2119665109167) rotate(0 236.47340480531216 60.82398019734842)"><path d="M7.44 7.79 C7.44 7.79, 7.44 7.79, 7.44 7.79 M7.44 7.79 C7.44 7.79, 7.44 7.79, 7.44 7.79 M3.24 18.72 C6.31 13.27, 11.17 12.44, 17.67 2.11 M3.24 18.72 C7.81 13.61, 11.87 10.2, 17.67 2.11 M2.32 25.87 C7.61 19.13, 11.48 14.09, 23.32 1.72 M2.32 25.87 C9.66 17.38, 16.22 8.91, 23.32 1.72 M2.06 32.27 C8.61 23.89, 14.69 19.33, 29.62 0.57 M2.06 32.27 C11.18 23.44, 18.57 14.02, 29.62 0.57 M1.8 38.67 C11.66 28.13, 19.18 18.6, 33.29 2.44 M1.8 38.67 C11.59 26.43, 23.04 13.58, 33.29 2.44 M2.2 44.31 C11.62 33.64, 22.48 21.17, 38.28 2.8 M2.2 44.31 C14.26 30.09, 26.75 16.89, 38.28 2.8 M1.93 50.71 C10.32 39.31, 18.6 28.91, 43.92 2.41 M1.93 50.71 C16.16 33.71, 30.08 18.34, 43.92 2.41 M2.33 56.35 C17.02 41.07, 27.73 23.37, 48.91 2.77 M2.33 56.35 C14.11 42.48, 26.37 28.32, 48.91 2.77 M2.07 62.75 C22.56 40.01, 42.29 19.1, 54.55 2.37 M2.07 62.75 C21.61 40.51, 40.53 18.38, 54.55 2.37 M1.81 69.15 C26.09 41.26, 46.12 15.36, 59.54 2.73 M1.81 69.15 C16.27 50.65, 32.5 32.9, 59.54 2.73 M2.2 74.79 C20.07 54.6, 37.89 30.89, 65.18 2.34 M2.2 74.79 C22.11 51.12, 43.11 27.29, 65.18 2.34 M1.94 81.19 C25.21 57.86, 45.02 32.4, 70.17 2.7 M1.94 81.19 C27.24 51, 52.47 20.54, 70.17 2.7 M2.33 86.83 C18.52 68.39, 34.26 52.73, 75.81 2.3 M2.33 86.83 C31.48 53.77, 59.16 20.98, 75.81 2.3 M2.07 93.23 C25.81 69.17, 45.13 39.83, 80.8 2.66 M2.07 93.23 C26.99 62.94, 54.86 31.63, 80.8 2.66 M3.12 98.12 C29.02 68.81, 58.9 39.52, 86.44 2.27 M3.12 98.12 C24.77 73.85, 46.13 51.02, 86.44 2.27 M2.21 105.27 C38.85 67.17, 71.66 23.58, 91.43 2.63 M2.21 105.27 C34.38 67.34, 65.31 30.99, 91.43 2.63 M4.57 108.65 C29.57 77.89, 55.52 49.27, 97.07 2.23 M4.57 108.65 C29.97 80.33, 53.9 51.26, 97.07 2.23 M6.93 112.03 C34.48 81.16, 64.25 46.33, 102.06 2.59 M6.93 112.03 C39.41 75.32, 73.14 36.75, 102.06 2.59 M9.29 115.4 C39.12 80.97, 68.21 45.91, 107.7 2.2 M9.29 115.4 C38.14 82.11, 68.18 48.67, 107.7 2.2 M12.97 117.27 C48.95 76.47, 81.84 39.85, 112.69 2.56 M12.97 117.27 C44.94 79.7, 75.52 44.36, 112.69 2.56 M15.99 119.9 C44.52 86.41, 73.45 55.44, 117.68 2.92 M15.99 119.9 C43.97 86.72, 71.67 52.64, 117.68 2.92 M19.66 121.77 C58.79 74.17, 98.97 27.01, 123.32 2.52 M19.66 121.77 C55.17 82.21, 89.18 42.71, 123.32 2.52 M24.65 122.13 C48.58 93.8, 74.19 67.03, 128.31 2.88 M24.65 122.13 C50.63 93.9, 76.3 64.74, 128.31 2.88 M29.64 122.49 C55.57 95.28, 76.68 69.08, 133.95 2.49 M29.64 122.49 C68.6 76.73, 109.16 30.68, 133.95 2.49 M35.28 122.09 C65.28 84.75, 96.11 50.51, 138.94 2.85 M35.28 122.09 C67.35 87.05, 99.14 49.74, 138.94 2.85 M40.27 122.45 C74.85 84.05, 108.32 42.73, 144.58 2.45 M40.27 122.45 C73.3 85.55, 105.55 47.61, 144.58 2.45 M45.91 122.06 C79.84 83.73, 110.91 44.26, 149.57 2.81 M45.91 122.06 C72.2 90.31, 98.3 59.73, 149.57 2.81 M50.9 122.42 C81.66 88.72, 111.59 51.78, 155.21 2.42 M50.9 122.42 C79.72 88.45, 108.26 54.48, 155.21 2.42 M56.54 122.02 C84.02 93.27, 111.97 59.84, 160.2 2.78 M56.54 122.02 C77.01 98.03, 96.92 73.32, 160.2 2.78 M61.53 122.38 C86.81 92.65, 111.19 61.93, 165.84 2.39 M61.53 122.38 C93.58 84.5, 126.53 47.33, 165.84 2.39 M67.17 121.99 C103.54 79.84, 143.02 35.55, 170.83 2.75 M67.17 121.99 C100.06 84.02, 131.67 46.19, 170.83 2.75 M72.16 122.35 C113.53 74.98, 155.97 25.17, 176.47 2.35 M72.16 122.35 C106.65 82.07, 141.88 42.98, 176.47 2.35 M77.8 121.96 C101.48 93, 125.85 66.72, 181.46 2.71 M77.8 121.96 C106.7 89.26, 133.16 58.26, 181.46 2.71 M82.79 122.32 C113.26 86.39, 143.25 51.53, 187.1 2.32 M82.79 122.32 C119.61 81.22, 155.89 37.48, 187.1 2.32 M87.77 122.68 C128.63 76.96, 164.86 34.27, 192.09 2.68 M87.77 122.68 C130.54 77.23, 169.76 29.71, 192.09 2.68 M93.42 122.28 C132.24 75.37, 176.12 27.65, 197.07 3.04 M93.42 122.28 C121.38 91.55, 148.46 60.05, 197.07 3.04 M98.4 122.64 C136.12 81.75, 171.99 39.57, 202.72 2.64 M98.4 122.64 C133.03 80.85, 169.07 40, 202.72 2.64 M104.05 122.25 C130.52 93.14, 155.74 64.41, 207.7 3 M104.05 122.25 C129.6 91.64, 156.75 61.86, 207.7 3 M109.03 122.61 C142.87 84.52, 176.85 45.23, 213.35 2.61 M109.03 122.61 C135.58 92.46, 161.93 61, 213.35 2.61 M114.68 122.21 C148.5 83.82, 181.7 45.34, 218.33 2.97 M114.68 122.21 C155.7 74.22, 197.31 26.4, 218.33 2.97 M119.66 122.57 C152.63 87.71, 184.61 49.76, 223.98 2.57 M119.66 122.57 C154.19 83.3, 188.76 43.16, 223.98 2.57 M125.31 122.18 C149.91 94.33, 173.12 66.42, 228.96 2.93 M125.31 122.18 C151.6 90.96, 178.3 62.98, 228.96 2.93 M130.29 122.54 C157.58 91.25, 179.71 63.71, 234.61 2.54 M130.29 122.54 C159.97 88.08, 189.62 55.89, 234.61 2.54 M135.94 122.14 C161.8 91.73, 190.28 62.79, 239.59 2.9 M135.94 122.14 C161.39 91.67, 188.07 61.2, 239.59 2.9 M140.92 122.5 C181.55 76.88, 222.88 29.91, 245.24 2.5 M140.92 122.5 C170.26 86.97, 201.65 51.57, 245.24 2.5 M146.57 122.11 C168.6 98.15, 192.34 70.77, 250.22 2.86 M146.57 122.11 C182.61 79.25, 221.26 36.88, 250.22 2.86 M151.55 122.47 C182.98 81.59, 217.7 44.96, 255.87 2.47 M151.55 122.47 C177.18 93.68, 204.18 63.64, 255.87 2.47 M157.2 122.07 C178.26 95.82, 202.33 69.56, 260.85 2.83 M157.2 122.07 C196.5 80.06, 234.56 36.69, 260.85 2.83 M162.18 122.43 C196.12 86.46, 225.93 48.03, 266.5 2.44 M162.18 122.43 C195.01 85.48, 226.66 50.57, 266.5 2.44 M167.17 122.79 C205.07 82.86, 236.81 40.39, 271.48 2.8 M167.17 122.79 C207.52 76.52, 247.96 28.81, 271.48 2.8 M172.81 122.4 C211.55 79.81, 247.6 36.05, 277.13 2.4 M172.81 122.4 C206.81 85.02, 240.77 45.72, 277.13 2.4 M177.8 122.76 C209.94 85.5, 236.44 51.69, 282.11 2.76 M177.8 122.76 C204.15 93.16, 228.16 63.79, 282.11 2.76 M183.44 122.37 C223.96 78.14, 261.55 32.91, 287.1 3.12 M183.44 122.37 C207.97 94.74, 231.47 67.91, 287.1 3.12 M188.43 122.73 C224.01 81.21, 262.05 37.12, 292.74 2.73 M188.43 122.73 C229.55 75.44, 271.03 27.76, 292.74 2.73 M194.07 122.33 C234.81 76.52, 273.83 34.71, 297.73 3.09 M194.07 122.33 C222.52 89.98, 250.77 57.89, 297.73 3.09 M199.06 122.69 C232.79 88.55, 261.8 50.1, 303.37 2.69 M199.06 122.69 C222.62 95.86, 245.85 69.7, 303.37 2.69 M204.7 122.3 C234.86 90.57, 265.99 53.38, 308.36 3.05 M204.7 122.3 C241.6 80.13, 278.78 36.42, 308.36 3.05 M209.69 122.66 C230.26 95.56, 252.98 68.01, 314 2.66 M209.69 122.66 C249.93 76.32, 289.88 31.45, 314 2.66 M215.33 122.26 C252.21 79.43, 289.52 38.86, 318.99 3.02 M215.33 122.26 C246.66 87.77, 276.46 54.65, 318.99 3.02 M220.32 122.62 C252.47 86.22, 286.6 50.68, 324.63 2.62 M220.32 122.62 C242.91 98.34, 264.36 72.01, 324.63 2.62 M225.96 122.23 C259.5 83.54, 293.95 44.5, 329.62 2.98 M225.96 122.23 C263.52 81.34, 299.67 37.44, 329.62 2.98 M230.95 122.59 C262.08 89.8, 289.52 53.74, 335.27 2.59 M230.95 122.59 C268.29 78.82, 306.09 35.23, 335.27 2.59 M236.59 122.19 C264.86 89.23, 296.7 52.28, 340.25 2.95 M236.59 122.19 C271.37 82.35, 306.52 41.86, 340.25 2.95 M241.58 122.55 C280.73 77.42, 316.97 37.16, 345.9 2.55 M241.58 122.55 C277.69 80.2, 314.75 38.03, 345.9 2.55 M247.22 122.16 C269.69 94.2, 291.35 70, 350.88 2.91 M247.22 122.16 C276.65 88.14, 308.17 54.51, 350.88 2.91 M252.21 122.52 C284.73 85.7, 316.03 52.9, 356.53 2.52 M252.21 122.52 C293.07 76.5, 332.04 30.36, 356.53 2.52 M257.2 122.88 C279.99 96.71, 299.89 72.43, 361.51 2.88 M257.2 122.88 C297 75.84, 336.29 31.04, 361.51 2.88 M262.84 122.48 C299.7 84.91, 332.55 45.09, 367.16 2.49 M262.84 122.48 C299.12 81.25, 335.83 37.23, 367.16 2.49 M267.83 122.84 C296.6 90.64, 321.75 60.83, 372.14 2.85 M267.83 122.84 C293.82 92.74, 320.38 63.36, 372.14 2.85 M273.47 122.45 C293.01 97.22, 315.12 72.41, 377.13 3.21 M273.47 122.45 C300.88 93.47, 327.27 62.8, 377.13 3.21 M278.46 122.81 C308.77 87.27, 339.96 55.91, 382.77 2.81 M278.46 122.81 C298.23 99.05, 319.86 73.2, 382.77 2.81 M284.1 122.41 C308.17 91.76, 330.36 66.56, 387.76 3.17 M284.1 122.41 C320.02 81.34, 356.57 41.42, 387.76 3.17 M289.09 122.78 C322.66 82.93, 358.11 42.11, 393.4 2.78 M289.09 122.78 C318.54 87.87, 348.62 54.83, 393.4 2.78 M294.73 122.38 C334.14 76.03, 375.84 28.58, 398.39 3.14 M294.73 122.38 C335.36 74.96, 375.3 29.22, 398.39 3.14 M299.72 122.74 C336.83 79.62, 371.02 40.04, 404.03 2.74 M299.72 122.74 C338.35 75.98, 380.05 29.78, 404.03 2.74 M305.36 122.35 C340.6 78.54, 380.32 38.65, 409.02 3.1 M305.36 122.35 C331.55 93.6, 356.16 62.82, 409.02 3.1 M310.35 122.71 C347.87 78.94, 387.29 32.37, 414.66 2.71 M310.35 122.71 C341.65 87.64, 370.24 52.49, 414.66 2.71 M315.99 122.31 C354.25 77.88, 390.65 37.85, 419.65 3.07 M315.99 122.31 C340.83 94.54, 365.96 64.72, 419.65 3.07 M320.98 122.67 C362.32 78.21, 400.37 32.05, 425.29 2.67 M320.98 122.67 C349.09 90.57, 378.75 56.41, 425.29 2.67 M326.62 122.28 C360.66 82.05, 394.78 42.99, 430.28 3.03 M326.62 122.28 C367.18 76.22, 406.86 27.83, 430.28 3.03 M331.61 122.64 C355.94 92.08, 383.76 63.82, 435.92 2.64 M331.61 122.64 C367.7 83.86, 400.93 43.83, 435.92 2.64 M337.25 122.24 C367.42 88.67, 398.33 51.05, 440.91 3 M337.25 122.24 C358.02 98.29, 381.36 73.39, 440.91 3 M342.24 122.6 C381.8 79.29, 421.75 35.03, 446.55 2.6 M342.24 122.6 C371.32 88.23, 401.25 54.19, 446.55 2.6 M347.23 122.96 C367.7 97.53, 387.71 71.33, 452.2 2.21 M347.23 122.96 C378.64 86.86, 408.89 52.98, 452.2 2.21 M352.87 122.57 C382.35 90.07, 411.07 55.42, 455.87 4.08 M352.87 122.57 C382.42 90.47, 410.37 56.9, 455.87 4.08 M357.86 122.93 C391.47 85.65, 424.99 46.84, 460.2 5.19 M357.86 122.93 C389.88 85.05, 423.95 46.27, 460.2 5.19 M363.5 122.53 C399.96 80.77, 435.59 39.32, 463.88 7.06 M363.5 122.53 C397.61 82.43, 433.5 41.87, 463.88 7.06 M368.49 122.89 C392.81 94.81, 415.35 68.73, 467.55 8.93 M368.49 122.89 C395.7 92.72, 424.62 60.2, 467.55 8.93 M374.13 122.5 C408.59 82.84, 443.24 42.45, 469.26 13.07 M374.13 122.5 C394.64 100.15, 415.71 77.04, 469.26 13.07 M379.12 122.86 C400.65 98.5, 418.72 73.15, 470.97 17.2 M379.12 122.86 C397.2 100.26, 415.8 77.56, 470.97 17.2 M384.76 122.46 C414.46 90.37, 443.5 56.87, 472.02 22.09 M384.76 122.46 C406.34 95.27, 429.38 69.62, 472.02 22.09 M389.75 122.82 C412.34 95.68, 437.71 67.94, 472.41 27.73 M389.75 122.82 C412.44 96.98, 435.06 71.05, 472.41 27.73 M395.39 122.43 C427.42 85.11, 458.37 52.04, 474.12 31.87 M395.39 122.43 C426.45 87, 457.58 50.35, 474.12 31.87 M400.38 122.79 C423.41 94.02, 450.19 65.57, 474.51 37.51 M400.38 122.79 C420.4 99.14, 442.39 73.18, 474.51 37.51 M406.02 122.4 C425.7 101.8, 441.7 81.1, 474.25 43.91 M406.02 122.4 C432.5 91.91, 459.45 59.93, 474.25 43.91 M411.01 122.76 C425.89 107.01, 438.51 93.01, 473.99 50.3 M411.01 122.76 C434.42 94.88, 458.91 66.14, 473.99 50.3 M416.65 122.36 C435.95 102.04, 451.68 83.69, 474.38 55.95 M416.65 122.36 C435.43 102.4, 452.54 79.88, 474.38 55.95 M421.64 122.72 C434.15 107.83, 443.82 94.94, 474.12 62.34 M421.64 122.72 C441.04 100.41, 461.41 76.64, 474.12 62.34 M426.62 123.08 C444.44 103.39, 462.4 81.08, 473.86 68.74 M426.62 123.08 C442.88 106.29, 458.01 88.05, 473.86 68.74 M432.27 122.69 C440.28 111.02, 449.11 102.71, 474.26 74.39 M432.27 122.69 C447.86 105.41, 462.7 87.06, 474.26 74.39 M437.25 123.05 C448.84 106.69, 460.61 92.37, 473.99 80.78 M437.25 123.05 C446.24 113.56, 454.81 103.09, 473.99 80.78 M443.55 121.9 C450.48 115.09, 457.23 108.37, 473.73 87.18 M443.55 121.9 C453.54 111.14, 462.85 100.33, 473.73 87.18 M449.2 121.5 C455.81 113.66, 462.02 103.24, 474.13 92.82 M449.2 121.5 C454.01 115.39, 459.04 110.77, 474.13 92.82 M456.15 119.6 C461.5 115.18, 461.91 111.68, 473.87 99.22 M456.15 119.6 C462.11 113.83, 466.41 106.75, 473.87 99.22" stroke="#ffc9c9" stroke-width="0.5" fill="none"></path><path d="M30.41 0 M30.41 0 C137.37 -2.18, 244.91 -2.42, 442.53 0 M30.41 0 C125.95 -0.4, 222.08 -0.89, 442.53 0 M442.53 0 C461.9 -1.15, 471.81 9.43, 472.95 30.41 M442.53 0 C463.8 0.59, 474.31 10.42, 472.95 30.41 M472.95 30.41 C471.06 51.58, 474.42 75.43, 472.95 91.24 M472.95 30.41 C473.42 44.54, 473.87 57.83, 472.95 91.24 M472.95 91.24 C472.84 110.95, 464.71 120.12, 442.53 121.65 M472.95 91.24 C472.58 110.37, 460.99 122.21, 442.53 121.65 M442.53 121.65 C341.29 122.65, 241.12 122.38, 30.41 121.65 M442.53 121.65 C304.07 122.87, 165.89 123.67, 30.41 121.65 M30.41 121.65 C10.99 122.18, 0.34 110.84, 0 91.24 M30.41 121.65 C8.05 123.48, 0.12 112.62, 0 91.24 M0 91.24 C0.35 67.61, 0.57 42.11, 0 30.41 M0 91.24 C-0.28 77.03, -0.67 60.68, 0 30.41 M0 30.41 C-0.93 11.64, 9.1 -1.68, 30.41 0 M0 30.41 C-0.8 9.34, 12.27 0.92, 30.41 0" stroke="#1e1e1e" stroke-width="1" fill="none"></path></g><g transform="translate(663.5217643844269 378.5359467082651) rotate(0 224.06390380859375 22.5)"><text x="224.06390380859375" y="0" font-family="Virgil, Segoe UI Emoji" font-size="36px" fill="#e03131" text-anchor="middle" style="white-space: pre;" direction="ltr" dominant-baseline="text-before-edge">OpStateBridge (Optimism)</text></g><g stroke-linecap="round" transform="translate(1349.0906911476097 366.07038561542777) rotate(0 218.5 41.5)"><path d="M20.75 0 M20.75 0 C177.55 0.62, 337.02 0.73, 416.25 0 M20.75 0 C149.43 1.21, 279.18 1.04, 416.25 0 M416.25 0 C432.02 1.22, 438.2 7.63, 437 20.75 M416.25 0 C430.68 1.09, 436.05 5.76, 437 20.75 M437 20.75 C438.96 33.39, 436.6 47.1, 437 62.25 M437 20.75 C436.44 35.96, 437.71 52.27, 437 62.25 M437 62.25 C438.02 74.86, 429.42 84.3, 416.25 83 M437 62.25 C435.84 77.31, 431.58 82.85, 416.25 83 M416.25 83 C331.47 81.77, 248.39 83.78, 20.75 83 M416.25 83 C295.97 81.16, 176.24 81.28, 20.75 83 M20.75 83 C5.74 83.68, -0.65 74.1, 0 62.25 M20.75 83 C5.2 82.23, -0.96 75.65, 0 62.25 M0 62.25 C0.97 47.99, 1.77 31.45, 0 20.75 M0 62.25 C-0.2 45.25, -0.01 29.62, 0 20.75 M0 20.75 C0.43 8.77, 5.91 1.84, 20.75 0 M0 20.75 C0 7.25, 6.19 2.18, 20.75 0" stroke="#e03131" stroke-width="1" fill="none"></path></g><g transform="translate(1475.6827321632347 385.07038561542777) rotate(0 91.907958984375 22.5)"><text x="91.907958984375" y="0" font-family="Virgil, Segoe UI Emoji" font-size="36px" fill="#e03131" text-anchor="middle" style="white-space: pre;" direction="ltr" dominant-baseline="text-before-edge">OpWorldID</text></g><g stroke-linecap="round" transform="translate(1371.9844336781473 167.872657369364) rotate(0 201.27903428164518 41.33328812179991)"><path d="M20.67 0 M20.67 0 C101.93 -0.17, 183.84 0.06, 381.89 0 M20.67 0 C160.21 -1.44, 298.26 -1.58, 381.89 0 M381.89 0 C395.13 1.07, 402.77 5.76, 402.56 20.67 M381.89 0 C396.14 -1.37, 402.96 7.55, 402.56 20.67 M402.56 20.67 C403.38 37.48, 400.76 52.61, 402.56 62 M402.56 20.67 C402.13 36.34, 403.65 53.21, 402.56 62 M402.56 62 C403.61 76.88, 396.36 83.21, 381.89 82.67 M402.56 62 C401.06 77.56, 394.59 84.22, 381.89 82.67 M381.89 82.67 C265.66 83.64, 150.09 82.15, 20.67 82.67 M381.89 82.67 C292.65 85.26, 203.41 84.98, 20.67 82.67 M20.67 82.67 C7.71 82.24, -1.4 75.65, 0 62 M20.67 82.67 C7.91 82.26, -0.12 77.18, 0 62 M0 62 C0.9 49.75, -0.51 39.19, 0 20.67 M0 62 C0.76 49.45, -0.1 37.32, 0 20.67 M0 20.67 C-1.16 6.47, 7.96 0.09, 20.67 0 M0 20.67 C-1.5 5.8, 7.62 -0.82, 20.67 0" stroke="#1971c2" stroke-width="1" fill="none"></path></g><g transform="translate(1440.8555089754175 186.7059454911639) rotate(0 132.407958984375 22.5)"><text x="132.407958984375" y="0" font-family="Virgil, Segoe UI Emoji" font-size="36px" fill="#1971c2" text-anchor="middle" style="white-space: pre;" direction="ltr" dominant-baseline="text-before-edge">PolygonWorldID</text></g><g transform="translate(1448.1429353760975 107.31781597334464) rotate(0 115.54194641113281 22.5)"><text x="115.54194641113281" y="0" font-family="Virgil, Segoe UI Emoji" font-size="36px" fill="#1971c2" text-anchor="middle" style="white-space: pre;" direction="ltr" dominant-baseline="text-before-edge">receiveRoot()</text></g><g transform="translate(1438.677713842191 307.27735892329156) rotate(0 115.54194641113281 22.5)"><text x="115.54194641113281" y="0" font-family="Virgil, Segoe UI Emoji" font-size="36px" fill="#e03131" text-anchor="middle" style="white-space: pre;" direction="ltr" dominant-baseline="text-before-edge">receiveRoot()</text></g><g stroke-linecap="round" transform="translate(644.7824584807088 542.0169210342892) rotate(0 236.47340480531216 60.82398019734842)"><path d="M7.44 7.79 C7.44 7.79, 7.44 7.79, 7.44 7.79 M7.44 7.79 C7.44 7.79, 7.44 7.79, 7.44 7.79 M3.24 18.72 C8.19 14.55, 13.72 7.02, 17.67 2.11 M3.24 18.72 C7.85 12.76, 13.22 7.67, 17.67 2.11 M2.32 25.87 C8.34 17.44, 16.86 9.21, 23.32 1.72 M2.32 25.87 C9.32 16.74, 16.15 10.01, 23.32 1.72 M2.06 32.27 C7.97 24.55, 15.83 15.76, 29.62 0.57 M2.06 32.27 C11.98 21.82, 22.1 10.09, 29.62 0.57 M1.8 38.67 C8.34 29.31, 15.42 23.63, 33.29 2.44 M1.8 38.67 C15.08 24.21, 25.87 9.2, 33.29 2.44 M2.2 44.31 C13.09 30.24, 24.29 19.42, 38.28 2.8 M2.2 44.31 C13.78 30.77, 24.63 18.45, 38.28 2.8 M1.93 50.71 C15.13 36.13, 24.54 23.81, 43.92 2.41 M1.93 50.71 C13.03 39.39, 23.91 27.15, 43.92 2.41 M2.33 56.35 C16.35 39.73, 28.71 23.54, 48.91 2.77 M2.33 56.35 C18.61 37.44, 33.52 19.44, 48.91 2.77 M2.07 62.75 C16.63 45.91, 35.27 24.97, 54.55 2.37 M2.07 62.75 C21.92 39.71, 39.75 19.13, 54.55 2.37 M1.81 69.15 C19.32 47.49, 39.57 26.39, 59.54 2.73 M1.81 69.15 C16.86 53.04, 31.81 34.23, 59.54 2.73 M2.2 74.79 C27.01 47.5, 47.58 19.19, 65.18 2.34 M2.2 74.79 C24.13 49.28, 48.06 22.57, 65.18 2.34 M1.94 81.19 C28.02 53.84, 53.21 23.93, 70.17 2.7 M1.94 81.19 C24.85 53.34, 49.28 26.09, 70.17 2.7 M2.33 86.83 C19.54 66.28, 38.01 48.65, 75.81 2.3 M2.33 86.83 C20.05 66.46, 37.49 47.53, 75.81 2.3 M2.07 93.23 C27.04 64.82, 51.03 39.93, 80.8 2.66 M2.07 93.23 C28.8 61.76, 56.97 31.07, 80.8 2.66 M3.12 98.12 C28.06 67.18, 56.44 39.35, 86.44 2.27 M3.12 98.12 C28.66 66.95, 56.2 36, 86.44 2.27 M2.21 105.27 C24.85 82.19, 45.01 57.25, 91.43 2.63 M2.21 105.27 C24.18 79.52, 46.91 51.38, 91.43 2.63 M4.57 108.65 C36.51 74.86, 63.55 39.68, 97.07 2.23 M4.57 108.65 C35.24 72.05, 68.66 34.3, 97.07 2.23 M6.93 112.03 C31.18 83.12, 55.84 54.5, 102.06 2.59 M6.93 112.03 C42.6 71.73, 77.45 31.13, 102.06 2.59 M9.29 115.4 C35.45 83.79, 62.18 53.68, 107.7 2.2 M9.29 115.4 C48.81 68.94, 87.47 24.4, 107.7 2.2 M12.97 117.27 C35.86 88.3, 60.31 60.49, 112.69 2.56 M12.97 117.27 C36.31 90.33, 59.7 64.89, 112.69 2.56 M15.99 119.9 C43.59 92.08, 67.88 62.88, 117.68 2.92 M15.99 119.9 C47.95 84.21, 79.04 46.63, 117.68 2.92 M19.66 121.77 C42.62 94.01, 70.88 63.53, 123.32 2.52 M19.66 121.77 C43.41 94.39, 68.25 66.64, 123.32 2.52 M24.65 122.13 C45.54 96.45, 65.56 69.54, 128.31 2.88 M24.65 122.13 C57.33 83.68, 91.77 45.05, 128.31 2.88 M29.64 122.49 C60.78 85.47, 89.86 52.79, 133.95 2.49 M29.64 122.49 C54.96 91.62, 80.05 63.35, 133.95 2.49 M35.28 122.09 C58.35 96.33, 82.52 67.49, 138.94 2.85 M35.28 122.09 C76.38 77.27, 116.2 29.99, 138.94 2.85 M40.27 122.45 C63.56 97.57, 84.17 73.69, 144.58 2.45 M40.27 122.45 C62.25 97.18, 83.99 70.67, 144.58 2.45 M45.91 122.06 C69.09 94.36, 94.61 64.97, 149.57 2.81 M45.91 122.06 C75.82 87.49, 103.3 54.83, 149.57 2.81 M50.9 122.42 C91.57 75.81, 134.56 26.68, 155.21 2.42 M50.9 122.42 C87.61 81.41, 124.27 39.14, 155.21 2.42 M56.54 122.02 C84 93.33, 107.09 62.88, 160.2 2.78 M56.54 122.02 C85.21 89.2, 113.86 55.56, 160.2 2.78 M61.53 122.38 C87.29 94.17, 115.56 60.76, 165.84 2.39 M61.53 122.38 C93.95 85.3, 124.76 49.22, 165.84 2.39 M67.17 121.99 C108.57 77.89, 147.25 31.89, 170.83 2.75 M67.17 121.99 C99.05 85.64, 127.63 51.39, 170.83 2.75 M72.16 122.35 C108.08 81.21, 146.11 35.36, 176.47 2.35 M72.16 122.35 C96.62 94.89, 121.33 67.54, 176.47 2.35 M77.8 121.96 C102.14 93.83, 128.76 63.31, 181.46 2.71 M77.8 121.96 C114.33 81.67, 148.97 40.34, 181.46 2.71 M82.79 122.32 C111.08 88.27, 137 56.59, 187.1 2.32 M82.79 122.32 C116 83.47, 148.75 45.11, 187.1 2.32 M87.77 122.68 C117.03 87.98, 148.13 53.82, 192.09 2.68 M87.77 122.68 C113.62 93.32, 140.72 62.41, 192.09 2.68 M93.42 122.28 C127.17 85.66, 160.37 45.66, 197.07 3.04 M93.42 122.28 C118.81 93.61, 145.25 65.53, 197.07 3.04 M98.4 122.64 C125.68 90.85, 153.26 59.76, 202.72 2.64 M98.4 122.64 C135.73 78.75, 175.19 33.73, 202.72 2.64 M104.05 122.25 C130.99 91.5, 154.56 62.63, 207.7 3 M104.05 122.25 C137.1 84.34, 171.17 45.5, 207.7 3 M109.03 122.61 C135.92 92.25, 159.47 60.21, 213.35 2.61 M109.03 122.61 C137.62 90.26, 165.49 56.85, 213.35 2.61 M114.68 122.21 C150.26 79.74, 189.14 36.31, 218.33 2.97 M114.68 122.21 C153.41 78.48, 192.33 35.02, 218.33 2.97 M119.66 122.57 C157.03 81.31, 194.18 37.62, 223.98 2.57 M119.66 122.57 C143.77 95.23, 168.9 66.84, 223.98 2.57 M125.31 122.18 C164.33 80.39, 199.64 34.74, 228.96 2.93 M125.31 122.18 C148.76 93.54, 173.01 65.73, 228.96 2.93 M130.29 122.54 C155.01 94.72, 173.74 69.89, 234.61 2.54 M130.29 122.54 C166.25 81.74, 202.84 40.54, 234.61 2.54 M135.94 122.14 C168.58 82.36, 203.46 45.01, 239.59 2.9 M135.94 122.14 C160.66 92.71, 187.24 62.4, 239.59 2.9 M140.92 122.5 C170.64 87.15, 203.53 48.75, 245.24 2.5 M140.92 122.5 C164.63 95.39, 187.93 67.46, 245.24 2.5 M146.57 122.11 C179.24 81.28, 215.25 44.83, 250.22 2.86 M146.57 122.11 C169.83 95.72, 191.9 69.07, 250.22 2.86 M151.55 122.47 C172.53 96.81, 195.24 73.37, 255.87 2.47 M151.55 122.47 C183.59 86.51, 214.77 50.98, 255.87 2.47 M157.2 122.07 C179.15 97.5, 199.92 72.32, 260.85 2.83 M157.2 122.07 C197.93 75.97, 240.05 28.96, 260.85 2.83 M162.18 122.43 C184.77 99.57, 205.47 72.46, 266.5 2.44 M162.18 122.43 C196.08 82.91, 229.03 45.04, 266.5 2.44 M167.17 122.79 C209.84 76.76, 247.87 27.02, 271.48 2.8 M167.17 122.79 C199.07 87.73, 228.26 52.45, 271.48 2.8 M172.81 122.4 C197.88 93.1, 226.27 64.37, 277.13 2.4 M172.81 122.4 C195.13 95.37, 216.75 69.74, 277.13 2.4 M177.8 122.76 C212.03 83.59, 248.63 43.29, 282.11 2.76 M177.8 122.76 C209.86 83.62, 243.81 44.75, 282.11 2.76 M183.44 122.37 C222.27 81.15, 260.18 37.71, 287.1 3.12 M183.44 122.37 C214.18 85.94, 243.33 51.73, 287.1 3.12 M188.43 122.73 C230.8 73.08, 273.08 25.61, 292.74 2.73 M188.43 122.73 C223.59 82.61, 258.74 43.49, 292.74 2.73 M194.07 122.33 C221.9 90.15, 249.13 58.76, 297.73 3.09 M194.07 122.33 C216.71 97.26, 239.66 70.69, 297.73 3.09 M199.06 122.69 C241.25 76.43, 283.75 26.55, 303.37 2.69 M199.06 122.69 C224.17 94.26, 249.35 66.33, 303.37 2.69 M204.7 122.3 C244.1 75.38, 286.83 31.59, 308.36 3.05 M204.7 122.3 C227.76 95.69, 251.47 69.98, 308.36 3.05 M209.69 122.66 C239.47 89.65, 269.4 55.39, 314 2.66 M209.69 122.66 C235.48 95.24, 260.58 65.16, 314 2.66 M215.33 122.26 C253.51 77.31, 296.32 28.65, 318.99 3.02 M215.33 122.26 C247.42 86.58, 278.38 50.73, 318.99 3.02 M220.32 122.62 C243.27 93.32, 269.75 65.84, 324.63 2.62 M220.32 122.62 C262.41 75.4, 301.4 30.18, 324.63 2.62 M225.96 122.23 C252.35 92.07, 277.66 62.13, 329.62 2.98 M225.96 122.23 C246.31 98.2, 269.25 73.93, 329.62 2.98 M230.95 122.59 C268.97 76.81, 311.42 32.31, 335.27 2.59 M230.95 122.59 C273.19 75.8, 314.21 27.91, 335.27 2.59 M236.59 122.19 C262.07 93.8, 285.64 62.32, 340.25 2.95 M236.59 122.19 C262.93 90.27, 292.46 57.58, 340.25 2.95 M241.58 122.55 C265.6 92.32, 291.48 63.85, 345.9 2.55 M241.58 122.55 C269.6 90.45, 295.69 60.96, 345.9 2.55 M247.22 122.16 C278.69 88.28, 310.9 50.76, 350.88 2.91 M247.22 122.16 C287.96 75.35, 328.51 27.34, 350.88 2.91 M252.21 122.52 C287.4 80.51, 320.91 41.91, 356.53 2.52 M252.21 122.52 C275.36 94.6, 299.14 70.31, 356.53 2.52 M257.2 122.88 C281.15 95.26, 309.16 62.62, 361.51 2.88 M257.2 122.88 C281.74 93.6, 306.45 67.19, 361.51 2.88 M262.84 122.48 C300.45 79.09, 335.46 36.84, 367.16 2.49 M262.84 122.48 C303.59 74.66, 344.27 27.21, 367.16 2.49 M267.83 122.84 C306.63 76.92, 350.21 28.12, 372.14 2.85 M267.83 122.84 C290.29 99.12, 310.9 75.35, 372.14 2.85 M273.47 122.45 C311.6 78.4, 349.5 35.76, 377.13 3.21 M273.47 122.45 C310.88 80.32, 349.28 35.59, 377.13 3.21 M278.46 122.81 C311.66 82.63, 347.2 39.87, 382.77 2.81 M278.46 122.81 C308.83 86.32, 340.21 50.45, 382.77 2.81 M284.1 122.41 C309.36 92.85, 339.36 60.83, 387.76 3.17 M284.1 122.41 C324.17 77.58, 363.83 30.01, 387.76 3.17 M289.09 122.78 C327.97 80.97, 365.62 33.77, 393.4 2.78 M289.09 122.78 C317.38 90.48, 345.82 57.45, 393.4 2.78 M294.73 122.38 C321.49 92.57, 345.77 62.89, 398.39 3.14 M294.73 122.38 C331.91 78.45, 370.57 36.94, 398.39 3.14 M299.72 122.74 C325.61 96.22, 349.52 65.3, 404.03 2.74 M299.72 122.74 C327.3 91.74, 353.69 61.24, 404.03 2.74 M305.36 122.35 C345.74 74.02, 387.34 26.56, 409.02 3.1 M305.36 122.35 C333.02 89.78, 362.67 56.56, 409.02 3.1 M310.35 122.71 C350.94 76.4, 392.66 29.57, 414.66 2.71 M310.35 122.71 C344.43 83.58, 379.61 45.24, 414.66 2.71 M315.99 122.31 C345.72 86.02, 375.43 52.39, 419.65 3.07 M315.99 122.31 C354.98 77.68, 392.4 33.63, 419.65 3.07 M320.98 122.67 C361.35 79.34, 398.29 35.34, 425.29 2.67 M320.98 122.67 C356.17 82.51, 391.53 40.97, 425.29 2.67 M326.62 122.28 C361.69 78.68, 397.38 38.68, 430.28 3.03 M326.62 122.28 C364.53 79.07, 400.89 36.44, 430.28 3.03 M331.61 122.64 C372.93 76.34, 413.77 28.74, 435.92 2.64 M331.61 122.64 C363.64 86.29, 395.38 50.36, 435.92 2.64 M337.25 122.24 C374.98 80.41, 411.78 37.45, 440.91 3 M337.25 122.24 C358.97 98.13, 382.36 71.88, 440.91 3 M342.24 122.6 C380.18 80.67, 417.94 37.77, 446.55 2.6 M342.24 122.6 C363.59 97.6, 386.15 71.38, 446.55 2.6 M347.23 122.96 C376.28 90.88, 404.03 59.57, 452.2 2.21 M347.23 122.96 C387.13 76.63, 426.34 31.32, 452.2 2.21 M352.87 122.57 C378.18 93.56, 404.7 62.57, 455.87 4.08 M352.87 122.57 C375.4 96.66, 399.42 70.97, 455.87 4.08 M357.86 122.93 C383.75 92.2, 406.41 64.35, 460.2 5.19 M357.86 122.93 C392.74 79.61, 430.94 38.67, 460.2 5.19 M363.5 122.53 C397.39 82.07, 430.96 41.1, 463.88 7.06 M363.5 122.53 C385.53 96.58, 408.67 69.82, 463.88 7.06 M368.49 122.89 C391.27 98.71, 412.9 72.36, 467.55 8.93 M368.49 122.89 C402.08 85.82, 434.17 49.28, 467.55 8.93 M374.13 122.5 C411.23 81.05, 448.63 39.09, 469.26 13.07 M374.13 122.5 C405.38 86.83, 435.5 51.37, 469.26 13.07 M379.12 122.86 C408.75 88.39, 439.51 51.42, 470.97 17.2 M379.12 122.86 C409.15 89.39, 438.25 55.9, 470.97 17.2 M384.76 122.46 C404.15 101.02, 423.12 77.71, 472.02 22.09 M384.76 122.46 C413.68 86.18, 445.05 51.57, 472.02 22.09 M389.75 122.82 C410.47 95.55, 434.96 70.95, 472.41 27.73 M389.75 122.82 C409.48 99.53, 429.38 77.48, 472.41 27.73 M395.39 122.43 C426.14 88.46, 456.09 54.16, 474.12 31.87 M395.39 122.43 C420.68 92.86, 445.42 63.61, 474.12 31.87 M400.38 122.79 C425.8 94.98, 450.86 65, 474.51 37.51 M400.38 122.79 C420.33 100.07, 439.48 78.17, 474.51 37.51 M406.02 122.4 C424.63 102.87, 443.64 80.27, 474.25 43.91 M406.02 122.4 C420.52 106.4, 436.34 88.74, 474.25 43.91 M411.01 122.76 C434.89 92.09, 460.38 65.37, 473.99 50.3 M411.01 122.76 C424.31 105.67, 437.46 89.71, 473.99 50.3 M416.65 122.36 C437.34 97.93, 457.62 75.47, 474.38 55.95 M416.65 122.36 C437.96 97.9, 458.46 73.94, 474.38 55.95 M421.64 122.72 C438.04 103.05, 453.14 85.34, 474.12 62.34 M421.64 122.72 C432.91 110.18, 444.43 96.33, 474.12 62.34 M426.62 123.08 C440.15 110.83, 449.68 94.69, 473.86 68.74 M426.62 123.08 C440.95 106.7, 454.19 92.12, 473.86 68.74 M432.27 122.69 C446.58 105.98, 460.56 90.27, 474.26 74.39 M432.27 122.69 C441.44 112.7, 449.49 103, 474.26 74.39 M437.25 123.05 C450.5 106.14, 465.29 88.46, 473.99 80.78 M437.25 123.05 C447 111.49, 457.22 100.43, 473.99 80.78 M443.55 121.9 C450.98 109.92, 459.74 101.4, 473.73 87.18 M443.55 121.9 C451.15 113.6, 457.98 105.16, 473.73 87.18 M449.2 121.5 C458.8 111.31, 465.06 102.6, 474.13 92.82 M449.2 121.5 C457.57 112.31, 466.1 103.21, 474.13 92.82 M456.15 119.6 C461.44 110.05, 469.04 102.28, 473.87 99.22 M456.15 119.6 C463.7 110.89, 470.68 102.86, 473.87 99.22" stroke="#ffec99" stroke-width="0.5" fill="none"></path><path d="M30.41 0 M30.41 0 C160.47 0.33, 292.79 -1.58, 442.53 0 M30.41 0 C148.4 -2.18, 266.09 -1.15, 442.53 0 M442.53 0 C460.97 -0.53, 471 11.6, 472.95 30.41 M442.53 0 C461.53 -0.86, 473.95 8.77, 472.95 30.41 M472.95 30.41 C473.06 49.01, 474.79 62.89, 472.95 91.24 M472.95 30.41 C473.89 49.74, 473.98 70.68, 472.95 91.24 M472.95 91.24 C474.76 111.95, 461.77 123.28, 442.53 121.65 M472.95 91.24 C471.7 113.49, 464.16 122.16, 442.53 121.65 M442.53 121.65 C330.71 120.73, 217.02 118.71, 30.41 121.65 M442.53 121.65 C308.2 121.2, 172.79 122.06, 30.41 121.65 M30.41 121.65 C11.19 120.91, -0.89 110.57, 0 91.24 M30.41 121.65 C10.28 121.97, -1.74 110.12, 0 91.24 M0 91.24 C-1.15 69.77, 0.25 45.56, 0 30.41 M0 91.24 C0.94 68.36, 0.16 46.66, 0 30.41 M0 30.41 C-1.22 11.79, 11.82 -0.24, 30.41 0 M0 30.41 C2.08 9.4, 10.25 -1.32, 30.41 0" stroke="#1e1e1e" stroke-width="1" fill="none"></path></g><g transform="translate(685.0379372606305 580.3409012316376) rotate(0 196.21792602539062 22.5)"><text x="196.21792602539062" y="0" font-family="Virgil, Segoe UI Emoji" font-size="36px" fill="#f08c00" text-anchor="middle" style="white-space: pre;" direction="ltr" dominant-baseline="text-before-edge">OpStateBridge (Base)</text></g><g stroke-linecap="round" transform="translate(665.1125895777843 157.57872773244821) rotate(0 236.47340480531216 60.82398019734842)"><path d="M7.44 7.79 C7.44 7.79, 7.44 7.79, 7.44 7.79 M7.44 7.79 C7.44 7.79, 7.44 7.79, 7.44 7.79 M3.24 18.72 C7.65 12.31, 13.68 7.55, 17.67 2.11 M3.24 18.72 C7.61 12.94, 13.22 7.28, 17.67 2.11 M2.32 25.87 C9.33 15.78, 15.8 10.6, 23.32 1.72 M2.32 25.87 C7.01 20, 12.66 13.62, 23.32 1.72 M2.06 32.27 C12.33 22.66, 22.79 10.43, 29.62 0.57 M2.06 32.27 C7.84 24.64, 13.86 18.95, 29.62 0.57 M1.8 38.67 C16.08 24.18, 25.27 8.4, 33.29 2.44 M1.8 38.67 C11.4 26.83, 21.19 16.59, 33.29 2.44 M2.2 44.31 C14 29.77, 24.53 17.98, 38.28 2.8 M2.2 44.31 C12.97 32.19, 21.76 21.33, 38.28 2.8 M1.93 50.71 C13.55 40.25, 24.84 27.81, 43.92 2.41 M1.93 50.71 C14.32 35.87, 26.02 21.42, 43.92 2.41 M2.33 56.35 C19.43 37.05, 33.45 19.26, 48.91 2.77 M2.33 56.35 C15.7 40.86, 31.2 23.28, 48.91 2.77 M2.07 62.75 C22.59 39.05, 39.01 20.02, 54.55 2.37 M2.07 62.75 C18.79 42.98, 36.85 23.3, 54.55 2.37 M1.81 69.15 C17.25 53.93, 32.25 33.46, 59.54 2.73 M1.81 69.15 C23.76 44.06, 43.88 18.58, 59.54 2.73 M2.2 74.79 C23.46 50.01, 48.32 23.06, 65.18 2.34 M2.2 74.79 C25.71 48.72, 48.84 21.64, 65.18 2.34 M1.94 81.19 C24.86 53.06, 50.27 25.52, 70.17 2.7 M1.94 81.19 C17.79 62.54, 34.32 45.33, 70.17 2.7 M2.33 86.83 C20.33 66.44, 38.11 48.27, 75.81 2.3 M2.33 86.83 C25.11 61.18, 47.28 37.02, 75.81 2.3 M2.07 93.23 C28.39 61.4, 57.93 30.85, 80.8 2.66 M2.07 93.23 C26.14 64.3, 51.72 37.29, 80.8 2.66 M3.12 98.12 C27.76 66.66, 56.1 35.52, 86.44 2.27 M3.12 98.12 C23.53 76.05, 42.75 53.06, 86.44 2.27 M2.21 105.27 C24.09 80.35, 46.45 50.62, 91.43 2.63 M2.21 105.27 C32.19 72.54, 59.42 39.18, 91.43 2.63 M4.57 108.65 C34.46 72.23, 69.13 33.72, 97.07 2.23 M4.57 108.65 C28.09 80.53, 52.23 52.63, 97.07 2.23 M6.93 112.03 C43.17 71.9, 77.28 31.61, 102.06 2.59 M6.93 112.03 C31.97 82.03, 57.67 52.78, 102.06 2.59 M9.29 115.4 C48.75 68.27, 87.07 24.07, 107.7 2.2 M9.29 115.4 C32.32 87.47, 56.56 59.74, 107.7 2.2 M12.97 117.27 C36.34 89.47, 60.42 64.69, 112.69 2.56 M12.97 117.27 C39.12 89.35, 63.1 61.13, 112.69 2.56 M15.99 119.9 C48.32 84.96, 78.39 46.76, 117.68 2.92 M15.99 119.9 C39.18 92.21, 65.44 63.01, 117.68 2.92 M19.66 121.77 C42.99 94.29, 69.21 65.79, 123.32 2.52 M19.66 121.77 C40.53 96.01, 61.44 70.02, 123.32 2.52 M24.65 122.13 C56.82 83.35, 92.4 44.41, 128.31 2.88 M24.65 122.13 C55.64 86.06, 85.02 52.66, 128.31 2.88 M29.64 122.49 C54.34 90.92, 79.2 63.49, 133.95 2.49 M29.64 122.49 C52.69 95.99, 76.71 67.83, 133.95 2.49 M35.28 122.09 C76.5 78.26, 115.43 30.53, 138.94 2.85 M35.28 122.09 C57.67 98.03, 78.45 74.04, 138.94 2.85 M40.27 122.45 C62.65 97.96, 83.72 70.73, 144.58 2.45 M40.27 122.45 C63.86 94.63, 88.86 65.85, 144.58 2.45 M45.91 122.06 C76.73 86.76, 103.06 54.35, 149.57 2.81 M45.91 122.06 C86.61 75.65, 128.5 27.62, 149.57 2.81 M50.9 122.42 C88.09 81.89, 125.24 38.97, 155.21 2.42 M50.9 122.42 C77.74 92.67, 102.46 62.29, 155.21 2.42 M56.54 122.02 C85.56 89.9, 113.53 56.38, 160.2 2.78 M56.54 122.02 C82.76 93.08, 110.11 61.17, 160.2 2.78 M61.53 122.38 C94.24 84.51, 123.78 49.25, 165.84 2.39 M61.53 122.38 C102.2 77.21, 141.95 30.74, 165.84 2.39 M67.17 121.99 C99.85 84.81, 126.87 50.97, 170.83 2.75 M67.17 121.99 C103.85 80.18, 141.41 35.91, 170.83 2.75 M72.16 122.35 C95.96 95.28, 121.15 68.45, 176.47 2.35 M72.16 122.35 C97.02 93.98, 122.87 64.3, 176.47 2.35 M77.8 121.96 C114.78 81.85, 148.62 39.97, 181.46 2.71 M77.8 121.96 C105.38 88.95, 132.07 57.31, 181.46 2.71 M82.79 122.32 C116 83.6, 147.97 45.47, 187.1 2.32 M82.79 122.32 C112.28 87.77, 142.33 54.01, 187.1 2.32 M87.77 122.68 C112.95 94.24, 141.57 61.87, 192.09 2.68 M87.77 122.68 C121.2 85.39, 154.57 46.1, 192.09 2.68 M93.42 122.28 C118.29 92.8, 146.09 65.47, 197.07 3.04 M93.42 122.28 C120.5 90.52, 148.06 59.14, 197.07 3.04 M98.4 122.64 C135.05 78.99, 174.87 33.91, 202.72 2.64 M98.4 122.64 C125.31 92.27, 150.07 62.92, 202.72 2.64 M104.05 122.25 C136.91 85.3, 171.39 46.34, 207.7 3 M104.05 122.25 C130.09 92.19, 154.86 61.23, 207.7 3 M109.03 122.61 C137.75 90.85, 165.31 56.44, 213.35 2.61 M109.03 122.61 C145.4 79.16, 183.86 35.57, 213.35 2.61 M114.68 122.21 C153.3 78.02, 192.99 34.98, 218.33 2.97 M114.68 122.21 C152.08 80.51, 189.32 37.19, 218.33 2.97 M119.66 122.57 C143.1 95.39, 168.69 66.97, 223.98 2.57 M119.66 122.57 C158.14 79.9, 194.79 35.22, 223.98 2.57 M125.31 122.18 C148.23 93.17, 172.4 65.52, 228.96 2.93 M125.31 122.18 C149.11 95.35, 169.42 70.35, 228.96 2.93 M130.29 122.54 C166.57 82.47, 203.78 41.44, 234.61 2.54 M130.29 122.54 C163.71 83.12, 198.34 44.67, 234.61 2.54 M135.94 122.14 C159.76 93.34, 186.67 62.92, 239.59 2.9 M135.94 122.14 C166.39 86.33, 198.32 49.32, 239.59 2.9 M140.92 122.5 C164.99 95.14, 187.42 67.11, 245.24 2.5 M140.92 122.5 C174.59 82.34, 209.63 44.51, 245.24 2.5 M146.57 122.11 C170.06 96.28, 191.55 69.07, 250.22 2.86 M146.57 122.11 C167.84 97.13, 190.01 72.98, 250.22 2.86 M151.55 122.47 C184.14 86.88, 215.24 51.78, 255.87 2.47 M151.55 122.47 C172.97 98.11, 194.04 73.23, 255.87 2.47 M157.2 122.07 C197.05 76.11, 240.82 28.65, 260.85 2.83 M157.2 122.07 C178.81 98.75, 199.86 72.88, 260.85 2.83 M162.18 122.43 C195.9 82.24, 228.81 44.46, 266.5 2.44 M162.18 122.43 C203.93 75.64, 243.74 26.83, 266.5 2.44 M167.17 122.79 C199.94 88.41, 227.62 53.21, 271.48 2.8 M167.17 122.79 C193.11 93.46, 220.13 64.34, 271.48 2.8 M172.81 122.4 C196.09 94.44, 216.9 68.97, 277.13 2.4 M172.81 122.4 C207.22 83.15, 242.7 43.24, 277.13 2.4 M177.8 122.76 C209.31 83.85, 243.63 44.75, 282.11 2.76 M177.8 122.76 C216.52 80.77, 254.38 37.31, 282.11 2.76 M183.44 122.37 C214.76 85.61, 242.5 52.34, 287.1 3.12 M183.44 122.37 C225.71 74.01, 267.37 26.68, 287.1 3.12 M188.43 122.73 C223.24 82.04, 259.15 43.37, 292.74 2.73 M188.43 122.73 C216.42 90.72, 244.27 58.64, 292.74 2.73 M194.07 122.33 C215.88 98.14, 238.92 71.3, 297.73 3.09 M194.07 122.33 C235.93 75.52, 277.44 27.27, 297.73 3.09 M199.06 122.69 C223.28 93.85, 248.57 66.83, 303.37 2.69 M199.06 122.69 C239.33 75.62, 280.86 30.53, 303.37 2.69 M204.7 122.3 C226.8 95.79, 251.16 70.89, 308.36 3.05 M204.7 122.3 C233.95 88.79, 263.68 54.68, 308.36 3.05 M209.69 122.66 C235.81 95.95, 260.78 64.82, 314 2.66 M209.69 122.66 C248.84 76.9, 290.58 29.17, 314 2.66 M215.33 122.26 C247.76 86.94, 278.94 50.6, 318.99 3.02 M215.33 122.26 C239.03 93.55, 264.34 65.92, 318.99 3.02 M220.32 122.62 C263.03 74.8, 300.51 30.95, 324.63 2.62 M220.32 122.62 C246.62 92.56, 272.69 62.17, 324.63 2.62 M225.96 122.23 C245.38 98.59, 270.09 74.42, 329.62 2.98 M225.96 122.23 C264.31 76.47, 304.98 31.85, 329.62 2.98 M230.95 122.59 C273.35 76.75, 313.81 28.81, 335.27 2.59 M230.95 122.59 C256.12 93.56, 280.8 62.98, 335.27 2.59 M236.59 122.19 C262.02 90.82, 292.76 58.01, 340.25 2.95 M236.59 122.19 C261.38 92.71, 286.74 64.19, 340.25 2.95 M241.58 122.55 C269.58 89.77, 294.81 61.78, 345.9 2.55 M241.58 122.55 C273.51 87.89, 305.39 50.98, 345.9 2.55 M247.22 122.16 C288.03 76.22, 328.13 27.35, 350.88 2.91 M247.22 122.16 C281.73 80.84, 315.73 41.71, 350.88 2.91 M252.21 122.52 C275.28 93.7, 300.14 71.23, 356.53 2.52 M252.21 122.52 C276.56 94.19, 303.44 63.05, 356.53 2.52 M257.2 122.88 C281.3 92.61, 306.71 67.41, 361.51 2.88 M257.2 122.88 C294.13 80.47, 330.01 38.21, 361.51 2.88 M262.84 122.48 C304.29 74.19, 344.66 26.44, 367.16 2.49 M262.84 122.48 C302.46 76.14, 344.89 28, 367.16 2.49 M267.83 122.84 C291.21 99.44, 311.46 76.02, 372.14 2.85 M267.83 122.84 C306.79 78.54, 345.26 34.77, 372.14 2.85 M273.47 122.45 C310.74 80.88, 349.57 35.08, 377.13 3.21 M273.47 122.45 C307.18 82.48, 342.59 40.81, 377.13 3.21 M278.46 122.81 C308.21 86.1, 339.9 50.12, 382.77 2.81 M278.46 122.81 C304.81 92.58, 333.26 61.09, 382.77 2.81 M284.1 122.41 C323.97 78.29, 363.39 29.06, 387.76 3.17 M284.1 122.41 C322.39 80.09, 360.11 34.74, 387.76 3.17 M289.09 122.78 C317.38 90.53, 345.49 57.58, 393.4 2.78 M289.09 122.78 C315.32 92.38, 340.71 62.29, 393.4 2.78 M294.73 122.38 C331.65 77.7, 371.44 37.87, 398.39 3.14 M294.73 122.38 C319.94 95.32, 343.92 66.03, 398.39 3.14 M299.72 122.74 C327 91.16, 353.04 60.93, 404.03 2.74 M299.72 122.74 C340.39 74.66, 381.77 27.26, 404.03 2.74 M305.36 122.35 C332.8 89.82, 363.43 56.37, 409.02 3.1 M305.36 122.35 C346.13 75.64, 387.1 29.08, 409.02 3.1 M310.35 122.71 C343.65 83.44, 380.06 45.82, 414.66 2.71 M310.35 122.71 C341.05 86.98, 371.15 52.63, 414.66 2.71 M315.99 122.31 C355.81 77.31, 392.01 33.65, 419.65 3.07 M315.99 122.31 C355.23 78.77, 392.81 34.78, 419.65 3.07 M320.98 122.67 C355.32 83.49, 391.04 40.69, 425.29 2.67 M320.98 122.67 C356.79 79.74, 392.9 38.72, 425.29 2.67 M326.62 122.28 C365.2 78.26, 400.52 36.01, 430.28 3.03 M326.62 122.28 C368.07 75.62, 408.7 28.57, 430.28 3.03 M331.61 122.64 C363.58 86.33, 395.3 51.03, 435.92 2.64 M331.61 122.64 C369.14 80.24, 405.88 37.66, 435.92 2.64 M337.25 122.24 C358.86 98.73, 383.26 71.97, 440.91 3 M337.25 122.24 C374.51 79.95, 411.75 37.38, 440.91 3 M342.24 122.6 C363.46 97.6, 386.07 71.06, 446.55 2.6 M342.24 122.6 C370.77 90.73, 398.28 59.38, 446.55 2.6 M347.23 122.96 C387.09 76.97, 425.66 32.21, 452.2 2.21 M347.23 122.96 C373.24 92.71, 399.82 61.89, 452.2 2.21 M352.87 122.57 C374.47 96.08, 400 70.57, 455.87 4.08 M352.87 122.57 C378.69 92.59, 402.61 64.18, 455.87 4.08 M357.86 122.93 C391.92 79.2, 431.57 39.6, 460.2 5.19 M357.86 122.93 C392.71 81.79, 427.27 40.85, 460.2 5.19 M363.5 122.53 C385.03 97.12, 408.52 69.82, 463.88 7.06 M363.5 122.53 C386.88 97.69, 409.19 71.3, 463.88 7.06 M368.49 122.89 C402.76 85.98, 434.6 50.1, 467.55 8.93 M368.49 122.89 C407.21 79.46, 445.81 35.59, 467.55 8.93 M374.13 122.5 C406.36 86.1, 435.97 50.42, 469.26 13.07 M374.13 122.5 C405.82 86.39, 437.67 48.96, 469.26 13.07 M379.12 122.86 C409.61 89.92, 438.43 56.73, 470.97 17.2 M379.12 122.86 C399.79 99.69, 420.13 75.54, 470.97 17.2 M384.76 122.46 C412.84 85.33, 445.11 51.17, 472.02 22.09 M384.76 122.46 C407.47 93.98, 432.34 67.15, 472.02 22.09 M389.75 122.82 C408.81 99.35, 428.52 78.38, 472.41 27.73 M389.75 122.82 C421.73 86.72, 453.19 50.6, 472.41 27.73 M395.39 122.43 C420.24 92.26, 444.5 62.78, 474.12 31.87 M395.39 122.43 C422.54 92.17, 449.17 60.97, 474.12 31.87 M400.38 122.79 C421.32 99.91, 439.92 78.77, 474.51 37.51 M400.38 122.79 C420.44 101.18, 440.39 77.87, 474.51 37.51 M406.02 122.4 C420.03 107.29, 437.16 88.65, 474.25 43.91 M406.02 122.4 C432.88 89.98, 460.3 59.74, 474.25 43.91 M411.01 122.76 C424.25 104.68, 436.51 88.89, 473.99 50.3 M411.01 122.76 C433.96 96.52, 456.32 71.23, 473.99 50.3 M416.65 122.36 C438.16 98.02, 457.89 74.59, 474.38 55.95 M416.65 122.36 C434.64 101.04, 452.2 80.68, 474.38 55.95 M421.64 122.72 C432.44 110.63, 444.23 95.87, 474.12 62.34 M421.64 122.72 C435.58 108.45, 447.54 92.1, 474.12 62.34 M426.62 123.08 C441.62 105.99, 454.07 92.98, 473.86 68.74 M426.62 123.08 C442.62 104.6, 458.46 86.57, 473.86 68.74 M432.27 122.69 C441.44 112.6, 448.82 103.23, 474.26 74.39 M432.27 122.69 C448.15 103.36, 464.88 83.79, 474.26 74.39 M437.25 123.05 C446.78 111.71, 457.23 101.1, 473.99 80.78 M437.25 123.05 C446.99 109.84, 457.56 98.45, 473.99 80.78 M443.55 121.9 C451.51 113.38, 458.13 104.61, 473.73 87.18 M443.55 121.9 C454.37 109.68, 463.54 98.38, 473.73 87.18 M449.2 121.5 C457.85 112.73, 466.6 104.08, 474.13 92.82 M449.2 121.5 C458.06 109.62, 467.92 98.75, 474.13 92.82 M456.15 119.6 C464.23 110.06, 471.28 101.94, 473.87 99.22 M456.15 119.6 C460.9 114.04, 467.9 105.82, 473.87 99.22" stroke="#a5d8ff" stroke-width="0.5" fill="none"></path><path d="M30.41 0 M30.41 0 C148.79 -2.72, 266.56 -0.65, 442.53 0 M30.41 0 C116.45 1.89, 201.49 2.43, 442.53 0 M442.53 0 C461.62 -0.46, 474.85 8.59, 472.95 30.41 M442.53 0 C462.27 1.99, 474.4 8.71, 472.95 30.41 M472.95 30.41 C474.61 48.93, 474.78 70.68, 472.95 91.24 M472.95 30.41 C473.9 53.63, 473.94 78.53, 472.95 91.24 M472.95 91.24 C473.39 110.96, 463.29 119.96, 442.53 121.65 M472.95 91.24 C473.92 113.59, 460.81 119.47, 442.53 121.65 M442.53 121.65 C308.74 120.81, 172.79 122.53, 30.41 121.65 M442.53 121.65 C296.95 120.69, 151.95 120.24, 30.41 121.65 M30.41 121.65 C8.93 123.34, 0.57 110.48, 0 91.24 M30.41 121.65 C9.02 123.86, 0.48 112.77, 0 91.24 M0 91.24 C1.47 67.39, -0.08 45.89, 0 30.41 M0 91.24 C-0.62 77.61, -0.82 62.22, 0 30.41 M0 30.41 C-1.14 11.58, 12 -0.63, 30.41 0 M0 30.41 C-1.64 10.85, 9.16 2.08, 30.41 0" stroke="#1e1e1e" stroke-width="1" fill="none"></path></g><g transform="translate(732.1340443098545 195.90270792979663) rotate(0 169.4519500732422 22.5)"><text x="169.4519500732422" y="0" font-family="Virgil, Segoe UI Emoji" font-size="36px" fill="#1971c2" text-anchor="middle" style="white-space: pre;" direction="ltr" dominant-baseline="text-before-edge">PolygonStateBridge</text></g><g stroke-linecap="round"><g transform="translate(627.1122403360698 612.9605928353194) rotate(0 -75.56752240250398 -76.71431490633745)"><path d="M-0.42 -1.07 C-29.14 -26.15, -176.86 -135.98, -173.04 -150.59 C-169.22 -165.21, -9.95 -99.23, 22.51 -88.75 M1.55 0.98 C-27.18 -24.43, -177.03 -137.62, -173.59 -152.36 C-170.14 -167.1, -10.38 -97.9, 22.22 -87.46" stroke="#f08c00" stroke-width="1" fill="none"></path></g><g transform="translate(627.1122403360698 612.9605928353194) rotate(0 -75.56752240250398 -76.71431490633745)"><path d="M-9.56 -86.67 C0.46 -86.22, 6.32 -87.45, 23.89 -86.06 M-7.8 -88.5 C-1.03 -87.07, 7.51 -87.71, 22.94 -86.77" stroke="#f08c00" stroke-width="1" fill="none"></path></g><g transform="translate(627.1122403360698 612.9605928353194) rotate(0 -75.56752240250398 -76.71431490633745)"><path d="M-2.24 -105.83 C6.03 -100.88, 10.16 -97.57, 23.89 -86.06 M-0.48 -107.67 C4.34 -101.7, 11.13 -97.74, 22.94 -86.77" stroke="#f08c00" stroke-width="1" fill="none"></path></g></g><mask></mask><g stroke-linecap="round"><g transform="translate(618.1565484046639 458.68171167801984) rotate(338.48050937777543 -46.620717554111934 -44.81718360367063)"><path d="M0.45 0.71 C-19.56 -14.47, -123.8 -84.26, -119.4 -89.92 C-115.01 -95.58, 2.36 -42.83, 26.82 -33.25 M-0.77 0.03 C-20.93 -14.47, -124.44 -83.25, -119.92 -88.68 C-115.41 -94.1, 2.25 -42.07, 26.33 -32.53" stroke="#e03131" stroke-width="1" fill="none"></path></g><g transform="translate(618.1565484046639 458.68171167801984) rotate(338.48050937777543 -46.620717554111934 -44.81718360367063)"><path d="M-2.46 -32.62 C6.16 -32.71, 15.93 -31.26, 25.85 -32.63 M-3.38 -33.22 C5.17 -33.36, 16.2 -32, 26.33 -32.29" stroke="#e03131" stroke-width="1" fill="none"></path></g><g transform="translate(618.1565484046639 458.68171167801984) rotate(338.48050937777543 -46.620717554111934 -44.81718360367063)"><path d="M5.48 -51.54 C11.43 -44.83, 18.36 -36.61, 25.85 -32.63 M4.56 -52.15 C10.63 -46.21, 19.09 -38.75, 26.33 -32.29" stroke="#e03131" stroke-width="1" fill="none"></path></g></g><mask></mask><g stroke-linecap="round"><g transform="translate(645.698229706172 342.55735867611384) rotate(309.17596936758474 -67.50666278823473 -55.82591344592123)"><path d="M0.89 -0.72 C-26.85 -19.39, -171.15 -105.51, -166.36 -111.08 C-161.57 -116.66, -3.17 -46.96, 29.62 -34.19 M-0.1 1.52 C-27.96 -17.58, -172.36 -107.13, -166.99 -112.85 C-161.62 -118.57, -0.81 -46.04, 32.13 -32.8" stroke="#1971c2" stroke-width="1" fill="none"></path></g><g transform="translate(645.698229706172 342.55735867611384) rotate(309.17596936758474 -67.50666278823473 -55.82591344592123)"><path d="M0.98 -33.47 C12.61 -35.41, 21.02 -33.62, 31.89 -32.9 M2.61 -33.57 C11.8 -34.28, 22.02 -34.07, 31.85 -32.83" stroke="#1971c2" stroke-width="1" fill="none"></path></g><g transform="translate(645.698229706172 342.55735867611384) rotate(309.17596936758474 -67.50666278823473 -55.82591344592123)"><path d="M9.06 -52.33 C18.33 -48.35, 24.23 -40.71, 31.89 -32.9 M10.69 -52.43 C17.15 -46.84, 24.65 -40.29, 31.85 -32.83" stroke="#1971c2" stroke-width="1" fill="none"></path></g></g><mask></mask><g transform="translate(420.29475151786914 169.52207526698692) rotate(0 112.57196044921875 22.5)"><text x="112.57196044921875" y="0" font-family="Virgil, Segoe UI Emoji" font-size="36px" fill="#1e1e1e" text-anchor="middle" style="white-space: pre;" direction="ltr" dominant-baseline="text-before-edge">latestRoot()</text></g><g transform="translate(478.2793142618773 343.7509444858083) rotate(0 84.55402374267578 16.903465183593994)"><text x="84.55402374267578" y="0" font-family="Virgil, Segoe UI Emoji" font-size="27.045544293750357px" fill="#1e1e1e" text-anchor="middle" style="white-space: pre;" direction="ltr" dominant-baseline="text-before-edge">latestRoot()</text></g><g transform="translate(326.91210064918755 574.6469359431719) rotate(0 120.63964080810547 24.117748527148024)"><text x="120.63964080810547" y="0" font-family="Virgil, Segoe UI Emoji" font-size="38.58839764343689px" fill="#1e1e1e" text-anchor="middle" style="white-space: pre;" direction="ltr" dominant-baseline="text-before-edge">latestRoot()</text></g><g stroke-linecap="round"><g transform="translate(1120.1164280048495 603.2459686392999) rotate(0 113.60735462249522 0.5157171552183399)"><path d="M-0.35 -0.59 C37.77 -0.75, 189.56 -0.69, 227.56 -0.53 M1.67 1.72 C39.71 1.67, 188.97 1.31, 226.49 0.72" stroke="#1e1e1e" stroke-width="1" fill="none"></path></g><g transform="translate(1120.1164280048495 603.2459686392999) rotate(0 113.60735462249522 0.5157171552183399)"><path d="M197.4 10.81 C203.19 8.9, 210.39 6.32, 226.26 1.45 M199.17 11.67 C205.11 8.06, 213.93 4.75, 226.78 0.69" stroke="#1e1e1e" stroke-width="1" fill="none"></path></g><g transform="translate(1120.1164280048495 603.2459686392999) rotate(0 113.60735462249522 0.5157171552183399)"><path d="M197.24 -9.71 C203.14 -7.43, 210.37 -5.82, 226.26 1.45 M199 -8.85 C204.79 -7.03, 213.65 -4.92, 226.78 0.69" stroke="#1e1e1e" stroke-width="1" fill="none"></path></g></g><mask></mask><g stroke-linecap="round" transform="translate(1356.6043851266857 563.0478170004403) rotate(0 218.5 41.5)"><path d="M20.75 0 M20.75 0 C126.78 -1.22, 233.43 -1.45, 416.25 0 M20.75 0 C143.41 1.78, 265.01 2.05, 416.25 0 M416.25 0 C428.39 -0.1, 435.93 8.14, 437 20.75 M416.25 0 C428.27 1.21, 437.01 4.91, 437 20.75 M437 20.75 C435.77 34.69, 436.18 51.28, 437 62.25 M437 20.75 C438 36.77, 436.87 52.2, 437 62.25 M437 62.25 C435.78 76.99, 430.08 82.55, 416.25 83 M437 62.25 C436 76, 431.31 81.05, 416.25 83 M416.25 83 C296.83 83.76, 176.55 82.91, 20.75 83 M416.25 83 C335.65 81.83, 256.25 81.5, 20.75 83 M20.75 83 C7.1 83.67, 1.22 76.99, 0 62.25 M20.75 83 C6.47 84.62, 1.76 74.04, 0 62.25 M0 62.25 C-0.99 48.33, 1.43 32.75, 0 20.75 M0 62.25 C0.46 51.21, -0.76 38.23, 0 20.75 M0 20.75 C1.44 6.58, 8.07 0.71, 20.75 0 M0 20.75 C2.22 9.19, 5.58 1.92, 20.75 0" stroke="#f08c00" stroke-width="1" fill="none"></path></g><g transform="translate(1483.1964261423107 582.0478170004403) rotate(0 91.907958984375 22.5)"><text x="91.907958984375" y="0" font-family="Virgil, Segoe UI Emoji" font-size="36px" fill="#f08c00" text-anchor="middle" style="white-space: pre;" direction="ltr" dominant-baseline="text-before-edge">OpWorldID</text></g><g transform="translate(1431.7167829647972 512.021809888291) rotate(0 115.54194641113281 22.5)"><text x="115.54194641113281" y="0" font-family="Virgil, Segoe UI Emoji" font-size="36px" fill="#f08c00" text-anchor="middle" style="white-space: pre;" direction="ltr" dominant-baseline="text-before-edge">receiveRoot()</text></g><g transform="translate(1087.5854179416626 491.2459752722939) rotate(0 144.37794494628906 22.5)"><text x="144.37794494628906" y="0" font-family="Virgil, Segoe UI Emoji" font-size="36px" fill="#1e1e1e" text-anchor="middle" style="white-space: pre;" direction="ltr" dominant-baseline="text-before-edge">propagateRoot()</text></g><g transform="translate(1111.5926362421772 288.79798949659266) rotate(0 144.37794494628906 22.5)"><text x="144.37794494628906" y="0" font-family="Virgil, Segoe UI Emoji" font-size="36px" fill="#1e1e1e" text-anchor="middle" style="white-space: pre;" direction="ltr" dominant-baseline="text-before-edge">propagateRoot()</text></g><g transform="translate(1106.8710184936497 96.75722732897918) rotate(0 144.37794494628906 22.5)"><text x="144.37794494628906" y="0" font-family="Virgil, Segoe UI Emoji" font-size="36px" fill="#1e1e1e" text-anchor="middle" style="white-space: pre;" direction="ltr" dominant-baseline="text-before-edge">propagateRoot()</text></g></svg>